<svg preserveAspectRatio="none" overflow="visible" style="display: block;" width="247" height="274.053" viewBox="0 0 247 274.053" fill="none" xmlns="http://www.w3.org/2000/svg">
<g id="strokes">
<g id="Ellipse 22006">
<mask id="path-1-outside-1_0_68" maskUnits="userSpaceOnUse" x="0" y="28.0532" width="247" height="125" fill="black">
<rect fill="white" y="28.0532" width="247" height="125"/>
<path d="M246 151.553C246 135.466 242.831 119.537 236.675 104.675C230.519 89.8121 221.496 76.3078 210.121 64.9326C198.745 53.5575 185.241 44.5342 170.379 38.378C155.516 32.2218 139.587 29.0532 123.5 29.0532C107.413 29.0532 91.4837 32.2218 76.6213 38.378C61.7589 44.5342 48.2546 53.5575 36.8794 64.9326C25.5042 76.3078 16.481 89.8121 10.3248 104.675C4.16855 119.537 0.999999 135.466 1 151.553L123.5 151.553H246Z"/>
</mask>
<path d="M246 151.553C246 135.466 242.831 119.537 236.675 104.675C230.519 89.8121 221.496 76.3078 210.121 64.9326C198.745 53.5575 185.241 44.5342 170.379 38.378C155.516 32.2218 139.587 29.0532 123.5 29.0532C107.413 29.0532 91.4837 32.2218 76.6213 38.378C61.7589 44.5342 48.2546 53.5575 36.8794 64.9326C25.5042 76.3078 16.481 89.8121 10.3248 104.675C4.16855 119.537 0.999999 135.466 1 151.553L123.5 151.553H246Z" stroke="#58CEA7" stroke-width="2" mask="url(#path-1-outside-1_0_68)"/>
</g>
<g id="Ellipse 22007">
<mask id="path-2-outside-2_0_68" maskUnits="userSpaceOnUse" x="35" y="63.0532" width="177" height="90" fill="black">
<rect fill="white" x="35" y="63.0532" width="177" height="90"/>
<path d="M211 151.553C211 140.063 208.737 128.684 204.339 118.068C199.942 107.452 193.497 97.8065 185.372 89.6814C177.247 81.5563 167.601 75.111 156.985 70.7138C146.369 66.3165 134.991 64.0532 123.5 64.0532C112.009 64.0532 100.631 66.3165 90.0152 70.7138C79.3992 75.1111 69.7533 81.5563 61.6282 89.6814C53.503 97.8065 47.0578 107.452 42.6605 118.068C38.2633 128.684 36 140.063 36 151.553L123.5 151.553H211Z"/>
</mask>
<path d="M211 151.553C211 140.063 208.737 128.684 204.339 118.068C199.942 107.452 193.497 97.8065 185.372 89.6814C177.247 81.5563 167.601 75.111 156.985 70.7138C146.369 66.3165 134.991 64.0532 123.5 64.0532C112.009 64.0532 100.631 66.3165 90.0152 70.7138C79.3992 75.1111 69.7533 81.5563 61.6282 89.6814C53.503 97.8065 47.0578 107.452 42.6605 118.068C38.2633 128.684 36 140.063 36 151.553L123.5 151.553H211Z" stroke="#58CEA7" stroke-width="2" mask="url(#path-2-outside-2_0_68)"/>
</g>
<g id="Ellipse 22008">
<mask id="path-3-outside-3_0_68" maskUnits="userSpaceOnUse" x="65" y="93.0532" width="117" height="60" fill="black">
<rect fill="white" x="65" y="93.0532" width="117" height="60"/>
<path d="M181 151.553C181 144.002 179.513 136.525 176.623 129.549C173.733 122.573 169.498 116.234 164.159 110.895C158.819 105.555 152.481 101.32 145.504 98.4301C138.528 95.5405 131.051 94.0532 123.5 94.0532C115.949 94.0532 108.472 95.5405 101.496 98.4302C94.5195 101.32 88.1807 105.555 82.8414 110.895C77.502 116.234 73.2666 122.573 70.3769 129.549C67.4873 136.525 66 144.002 66 151.553L123.5 151.553H181Z"/>
</mask>
<path d="M181 151.553C181 144.002 179.513 136.525 176.623 129.549C173.733 122.573 169.498 116.234 164.159 110.895C158.819 105.555 152.481 101.32 145.504 98.4301C138.528 95.5405 131.051 94.0532 123.5 94.0532C115.949 94.0532 108.472 95.5405 101.496 98.4302C94.5195 101.32 88.1807 105.555 82.8414 110.895C77.502 116.234 73.2666 122.573 70.3769 129.549C67.4873 136.525 66 144.002 66 151.553L123.5 151.553H181Z" stroke="#58CEA7" stroke-width="2" mask="url(#path-3-outside-3_0_68)"/>
</g>
<g id="Ellipse 22009">
<mask id="path-4-outside-4_0_68" maskUnits="userSpaceOnUse" x="94" y="122.053" width="59" height="31" fill="black">
<rect fill="white" x="94" y="122.053" width="59" height="31"/>
<path d="M152 151.553C152 147.811 151.263 144.105 149.831 140.647C148.398 137.189 146.299 134.047 143.653 131.401C141.006 128.754 137.864 126.655 134.406 125.223C130.949 123.79 127.243 123.053 123.5 123.053C119.757 123.053 116.051 123.79 112.594 125.223C109.136 126.655 105.994 128.754 103.347 131.401C100.701 134.047 98.6017 137.189 97.1694 140.647C95.7372 144.105 95 147.811 95 151.553L123.5 151.553H152Z"/>
</mask>
<path d="M152 151.553C152 147.811 151.263 144.105 149.831 140.647C148.398 137.189 146.299 134.047 143.653 131.401C141.006 128.754 137.864 126.655 134.406 125.223C130.949 123.79 127.243 123.053 123.5 123.053C119.757 123.053 116.051 123.79 112.594 125.223C109.136 126.655 105.994 128.754 103.347 131.401C100.701 134.047 98.6017 137.189 97.1694 140.647C95.7372 144.105 95 147.811 95 151.553L123.5 151.553H152Z" stroke="#58CEA7" stroke-width="2" mask="url(#path-4-outside-4_0_68)"/>
</g>
<path id="Vector 427" d="M122.5 152.5L122.5 0.5" stroke="#58CEA7" stroke-linecap="round"/>
<path id="Vector 428" d="M122.5 152.5L17.8106 45.8193" stroke="#58CEA7" stroke-linecap="round"/>
</g>
</svg>
